<svg version="1.1" id="Layer_1" xmlns="http://www.w3.org/2000/svg" xmlns:xlink="http://www.w3.org/1999/xlink" x="0px" y="0px"
	 width="100%" viewBox="0 0 64 64" enable-background="new 0 0 64 64" xml:space="preserve">
<path fill="#74ACFA" opacity="1.000000" stroke="none" 
	d="
M50.000000,1.000000 
	C54.976185,1.000000 59.952374,1.000000 64.933945,1.000026 
	C64.939323,22.333397 64.939323,43.666740 64.939323,65.000000 
	C60.234207,65.000000 55.589767,65.000000 50.472633,64.531342 
	C49.999905,60.249332 50.105358,56.432457 49.978165,52.623352 
	C49.702694,44.373608 49.308136,36.127842 49.110970,27.549072 
	C52.502659,24.394186 51.158390,21.740673 49.126282,18.727907 
	C49.528687,12.557991 49.764343,6.778996 50.000000,1.000000 
z"/>
<path fill="#82DDFB" opacity="1.000000" stroke="none" 
	d="
M10.000000,1.000000 
	C11.066569,1.000000 12.133140,1.000000 13.599777,1.468657 
	C13.999896,22.958210 13.999949,43.979103 14.000000,65.000000 
	C12.933431,65.000000 11.866860,65.000000 10.400141,64.531342 
	C9.999994,43.041790 9.999997,22.020895 10.000000,1.000000 
z"/>
<path fill="#85E9FC" opacity="1.000000" stroke="none" 
	d="
M1.000000,6.000000 
	C1.000000,4.420312 1.000000,2.840624 1.000000,1.000000 
	C2.330903,1.000000 3.667563,1.000000 5.571327,1.412243 
	C6.425544,6.446687 7.003372,11.072411 6.947404,15.690454 
	C6.748188,32.128380 6.333257,48.563694 6.000000,65.000000 
	C4.420312,65.000000 2.840624,65.000000 1.000000,65.000000 
	C1.000000,63.669098 1.000000,62.332436 1.383297,60.422150 
	C2.508588,58.516743 3.882365,57.191345 3.895885,55.852215 
	C4.048944,40.691078 4.075759,25.526688 3.863639,10.366986 
	C3.843088,8.898255 1.998091,7.455052 1.000000,6.000000 
z"/>
<path fill="#7CCAFB" opacity="1.000000" stroke="none" 
	d="
M20.000000,1.000000 
	C22.042318,1.000000 24.084635,1.000000 26.563408,1.468650 
	C26.999832,3.925755 26.919546,5.918053 27.014553,7.901957 
	C27.321363,14.308741 27.692659,20.712437 27.915527,27.422974 
	C25.541960,29.858992 23.291964,31.989361 20.875191,33.728340 
	C20.472775,31.541868 20.047565,29.748274 20.033482,27.951458 
	C19.963078,18.968103 20.000498,9.983903 20.000000,1.000000 
z"/>
<path fill="#75B2FA" opacity="1.000000" stroke="none" 
	d="
M48.962280,27.880447 
	C49.308136,36.127842 49.702694,44.373608 49.978165,52.623352 
	C50.105358,56.432457 49.999905,60.249332 49.999969,64.531342 
	C48.285641,65.000000 46.571285,65.000000 44.428467,64.531342 
	C43.987450,53.669014 43.974899,43.275341 44.081676,32.580162 
	C45.788097,30.812580 47.375191,29.346512 48.962280,27.880447 
z"/>
<path fill="#84E4FC" opacity="1.000000" stroke="none" 
	d="
M6.399996,65.000000 
	C6.333257,48.563694 6.748188,32.128380 6.947404,15.690454 
	C7.003372,11.072411 6.425544,6.446687 6.069215,1.412243 
	C7.066669,1.000000 8.133339,1.000000 9.600004,1.000000 
	C9.999997,22.020895 9.999994,43.041790 9.999996,64.531342 
	C8.933331,65.000000 7.866662,65.000000 6.399996,65.000000 
z"/>
<path fill="#80D7FB" opacity="1.000000" stroke="none" 
	d="
M14.375000,65.000000 
	C13.999949,43.979103 13.999896,22.958210 13.999922,1.468657 
	C14.750000,1.000000 15.500000,1.000000 16.624987,1.468657 
	C16.999998,11.913086 16.947292,21.889400 17.050253,31.864109 
	C17.068096,33.592800 17.744671,35.314693 18.054901,37.447525 
	C18.034798,41.224304 18.076773,44.593292 17.837597,48.273857 
	C17.370964,54.056961 17.185482,59.528481 17.000000,65.000000 
	C16.250000,65.000000 15.500000,65.000000 14.375000,65.000000 
z"/>
<path fill="#86EDFC" opacity="1.000000" stroke="none" 
	d="
M1.000000,6.468657 
	C1.998091,7.455052 3.843088,8.898255 3.863639,10.366986 
	C4.075759,25.526688 4.048944,40.691078 3.895885,55.852215 
	C3.882365,57.191345 2.508588,58.516743 1.383297,59.924259 
	C1.000000,42.312439 1.000000,24.624876 1.000000,6.468657 
z"/>
<path fill="#78BAFB" opacity="1.000000" stroke="none" 
	d="
M40.000000,65.000000 
	C38.285625,65.000000 36.571247,65.000000 34.428490,64.531471 
	C34.000126,62.237125 34.098919,60.404903 33.981087,58.586723 
	C33.664852,53.707207 33.255943,48.833698 33.012978,43.649559 
	C35.082088,41.521137 37.022060,39.700954 39.034882,38.300461 
	C39.405155,47.480099 39.702579,56.240047 40.000000,65.000000 
z"/>
<path fill="#76B6FB" opacity="1.000000" stroke="none" 
	d="
M40.399994,65.000000 
	C39.702579,56.240047 39.405155,47.480099 39.153938,37.998825 
	C40.787540,35.812229 42.374943,34.346951 43.962349,32.881672 
	C43.974899,43.275341 43.987450,53.669014 44.000000,64.531342 
	C42.933331,65.000000 41.866661,65.000000 40.399994,65.000000 
z"/>
<path fill="#7FD2FB" opacity="1.000000" stroke="none" 
	d="
M18.116982,37.039726 
	C17.744671,35.314693 17.068096,33.592800 17.050253,31.864109 
	C16.947292,21.889400 16.999998,11.913086 16.999987,1.468657 
	C17.750000,1.000000 18.500000,1.000000 19.625000,1.000000 
	C20.000498,9.983903 19.963078,18.968103 20.033482,27.951458 
	C20.047565,29.748274 20.472775,31.541868 20.769890,34.013241 
	C19.926569,35.472931 19.021776,36.256329 18.116982,37.039726 
z"/>
<path fill="#7AC4FB" opacity="1.000000" stroke="none" 
	d="
M28.039101,27.117321 
	C27.692659,20.712437 27.321363,14.308741 27.014553,7.901957 
	C26.919546,5.918053 26.999832,3.925755 26.999931,1.468650 
	C28.066669,1.000000 29.133339,1.000000 30.599932,1.468581 
	C30.999826,4.095069 30.889626,6.259765 31.022091,8.409509 
	C31.322834,13.290183 31.742950,18.163502 31.990368,23.341257 
	C30.590496,24.800909 29.314798,25.959116 28.039101,27.117321 
z"/>
<path fill="#7FD2FB" opacity="1.000000" stroke="none" 
	d="
M17.428463,65.000000 
	C17.185482,59.528481 17.370964,54.056961 18.176516,48.424713 
	C20.196199,48.565704 21.595816,48.867420 22.996265,49.625397 
	C22.998066,55.054440 22.999033,60.027218 23.000000,65.000000 
	C21.285643,65.000000 19.571283,65.000000 17.428463,65.000000 
z"/>
<path fill="#75B2FA" opacity="1.000000" stroke="none" 
	d="
M49.571537,1.000000 
	C49.764343,6.778996 49.528687,12.557991 48.821369,18.599220 
	C46.899681,17.518745 45.449657,16.176035 43.999744,14.379124 
	C43.999901,9.616614 43.999950,5.308307 44.000000,1.000000 
	C45.714359,1.000000 47.428715,1.000000 49.571537,1.000000 
z"/>
<path fill="#79C0FB" opacity="1.000000" stroke="none" 
	d="
M32.114540,23.039812 
	C31.742950,18.163502 31.322834,13.290183 31.022091,8.409509 
	C30.889626,6.259765 30.999826,4.095069 30.999928,1.468581 
	C32.066669,1.000000 33.133339,1.000000 34.599895,1.468364 
	C35.012997,7.997140 35.026211,14.057553 34.934078,20.402767 
	C33.924000,21.471649 33.019268,22.255730 32.114540,23.039812 
z"/>
<path fill="#79C0FB" opacity="1.000000" stroke="none" 
	d="
M32.883839,43.957802 
	C33.255943,48.833698 33.664852,53.707207 33.981087,58.586723 
	C34.098919,60.404903 34.000126,62.237125 34.000053,64.531471 
	C32.933331,65.000000 31.866661,65.000000 30.400072,64.531891 
	C29.987425,58.336197 29.974697,52.608608 30.065449,46.595627 
	C31.073898,45.526085 31.978868,44.741943 32.883839,43.957802 
z"/>
<path fill="#78BAFB" opacity="1.000000" stroke="none" 
	d="
M35.039425,20.117966 
	C35.026211,14.057553 35.012997,7.997140 34.999893,1.468364 
	C36.066669,1.000000 37.133339,1.000000 38.600060,1.463714 
	C39.371395,6.299459 39.742676,10.671489 39.985718,15.348377 
	C38.251461,17.141478 36.645443,18.629721 35.039425,20.117966 
z"/>
<path fill="#76B6FB" opacity="1.000000" stroke="none" 
	d="
M40.113956,15.043519 
	C39.742676,10.671489 39.371395,6.299459 39.000057,1.463714 
	C40.388889,1.000000 41.777779,1.000000 43.583336,1.000000 
	C43.999950,5.308307 43.999901,9.616614 43.616604,14.452312 
	C42.193558,15.000977 41.153755,15.022247 40.113956,15.043519 
z"/>
<path fill="#7AC4FB" opacity="1.000000" stroke="none" 
	d="
M29.961967,46.881023 
	C29.974697,52.608608 29.987425,58.336197 30.000076,64.531891 
	C28.933331,65.000000 27.866661,65.000000 26.400156,64.532707 
	C25.987177,59.003773 25.974033,53.942131 26.104889,48.570587 
	C27.486580,47.800800 28.724274,47.340912 29.961967,46.881023 
z"/>
<path fill="#7CCAFB" opacity="1.000000" stroke="none" 
	d="
M25.960888,48.880489 
	C25.974033,53.942131 25.987177,59.003773 26.000160,64.532707 
	C25.250000,65.000000 24.500000,65.000000 23.375000,65.000000 
	C22.999033,60.027218 22.998066,55.054440 23.362131,49.549435 
	C24.471737,48.971638 25.216312,48.926064 25.960888,48.880489 
z"/>
<path fill="#000000" opacity="1.000000" stroke="none" 
	d="
M26.104887,48.570587 
	C25.216312,48.926064 24.471737,48.971638 23.361296,49.093178 
	C21.595816,48.867420 20.196199,48.565704 18.457664,48.113132 
	C18.076773,44.593292 18.034798,41.224304 18.054903,37.447525 
	C19.021776,36.256329 19.926569,35.472931 20.936665,34.404633 
	C23.291964,31.989361 25.541960,29.858992 27.915527,27.422972 
	C29.314798,25.959116 30.590496,24.800909 31.990364,23.341257 
	C33.019268,22.255730 33.924000,21.471649 34.934078,20.402765 
	C36.645443,18.629721 38.251461,17.141478 39.985718,15.348377 
	C41.153755,15.022247 42.193558,15.000977 43.616497,14.906516 
	C45.449657,16.176035 46.899681,17.518745 48.654617,18.990141 
	C51.158390,21.740673 52.502659,24.394186 49.110970,27.549072 
	C47.375191,29.346512 45.788097,30.812580 44.081673,32.580162 
	C42.374943,34.346951 40.787540,35.812229 39.081085,37.579140 
	C37.022060,39.700954 35.082088,41.521137 33.012978,43.649559 
	C31.978868,44.741943 31.073898,45.526085 30.065449,46.595627 
	C28.724274,47.340912 27.486580,47.800800 26.104887,48.570587 
M29.316469,32.166325 
	C24.869186,34.842281 26.839388,38.440941 27.644896,42.962177 
	C29.560043,40.853535 30.836325,39.448307 32.721256,37.766945 
	C32.495983,36.550106 32.270710,35.333263 32.831242,34.015106 
	C36.378757,34.745335 38.360291,32.603504 40.765411,29.760536 
	C44.855667,25.632935 45.063271,24.324608 42.251324,19.167397 
	C40.774357,20.789686 39.363853,22.338972 37.332100,24.154106 
	C35.540863,26.397455 33.749630,28.640806 31.352604,30.990391 
	C30.888773,31.287540 30.424940,31.584690 29.316469,32.166325 
z"/>
<path fill="#78BAFB" opacity="1.000000" stroke="none" 
	d="
M31.958391,30.884155 
	C33.749630,28.640806 35.540863,26.397455 37.794228,24.365559 
	C38.875626,26.399378 39.494888,28.221745 40.114151,30.044113 
	C38.360291,32.603504 36.378757,34.745335 32.426224,33.661781 
	C32.000267,32.500355 31.979328,31.692255 31.958391,30.884155 
z"/>
<path fill="#76B6FB" opacity="1.000000" stroke="none" 
	d="
M40.439781,29.902325 
	C39.494888,28.221745 38.875626,26.399378 38.104855,24.232632 
	C39.363853,22.338972 40.774357,20.789686 42.251324,19.167397 
	C45.063271,24.324608 44.855667,25.632935 40.439781,29.902325 
z"/>
<path fill="#7AC4FB" opacity="1.000000" stroke="none" 
	d="
M32.112606,38.043079 
	C30.836325,39.448307 29.560043,40.853535 27.644896,42.962177 
	C26.839388,38.440941 24.869186,34.842281 29.658527,32.403877 
	C30.704592,34.441978 31.408598,36.242531 32.112606,38.043079 
z"/>
<path fill="#79C0FB" opacity="1.000000" stroke="none" 
	d="
M32.416931,37.905014 
	C31.408598,36.242531 30.704592,34.441978 29.980846,32.261635 
	C30.424940,31.584690 30.888773,31.287540 31.655497,30.937271 
	C31.979328,31.692255 32.000267,32.500355 32.033321,33.712440 
	C32.270710,35.333263 32.495983,36.550106 32.416931,37.905014 
z"/>
</svg>