<svg version="1.1" id="Layer_1" xmlns="http://www.w3.org/2000/svg" xmlns:xlink="http://www.w3.org/1999/xlink" x="0px" y="0px"
	 width="100%" viewBox="0 0 64 64" enable-background="new 0 0 64 64" xml:space="preserve">
<path fill="#F44437" opacity="1.000000" stroke="none" 
	d="
M33.000000,65.000000 
	C22.020546,65.000000 11.541093,65.000000 1.030820,65.000000 
	C1.030820,43.728996 1.030820,22.457935 1.030820,1.093438 
	C22.228931,1.093438 43.458408,1.093438 64.843948,1.093438 
	C64.843948,22.332439 64.843948,43.666100 64.843948,65.000000 
	C54.458889,65.000000 43.979443,65.000000 33.000000,65.000000 
M37.348415,32.658516 
	C38.947624,30.970873 40.807518,29.455694 42.070984,27.545931 
	C43.276958,25.723061 45.108643,22.263403 44.503716,21.647993 
	C41.875546,18.974270 40.155445,22.089081 38.626854,23.754713 
	C36.872566,25.666275 35.565647,27.988401 33.845150,30.445251 
	C30.151978,26.596355 28.127155,24.121185 25.701811,22.135128 
	C24.708122,21.321415 22.849274,21.564222 21.383993,21.326408 
	C21.588017,22.787704 21.272608,24.732334 22.096043,25.617266 
	C24.329397,28.017418 27.045757,29.968134 30.260740,32.678970 
	C26.859035,35.807777 24.243601,37.872375 22.108593,40.350826 
	C21.294426,41.295967 21.581879,43.190071 21.367281,44.651695 
	C22.833328,44.425018 24.719896,44.693462 25.683414,43.875111 
	C28.174582,41.759274 30.258451,39.163887 33.395565,35.807014 
	C35.828690,38.751560 37.495258,41.308537 39.711945,43.231300 
	C40.882912,44.247009 43.012222,44.157879 44.708858,44.567566 
	C44.207371,42.868980 44.093498,40.891590 43.117306,39.534462 
	C41.484367,37.264297 39.300896,35.390129 37.348415,32.658516 
z"/>
<path fill="#FAF9F9" opacity="1.000000" stroke="none" 
	d="
M37.348778,33.003899 
	C39.300896,35.390129 41.484367,37.264297 43.117306,39.534462 
	C44.093498,40.891590 44.207371,42.868980 44.708858,44.567566 
	C43.012222,44.157879 40.882912,44.247009 39.711945,43.231300 
	C37.495258,41.308537 35.828690,38.751560 33.395565,35.807014 
	C30.258451,39.163887 28.174582,41.759274 25.683414,43.875111 
	C24.719896,44.693462 22.833328,44.425018 21.367281,44.651695 
	C21.581879,43.190071 21.294426,41.295967 22.108593,40.350826 
	C24.243601,37.872375 26.859035,35.807777 30.260740,32.678970 
	C27.045757,29.968134 24.329397,28.017418 22.096043,25.617266 
	C21.272608,24.732334 21.588017,22.787704 21.383993,21.326408 
	C22.849274,21.564222 24.708122,21.321415 25.701811,22.135128 
	C28.127155,24.121185 30.151978,26.596355 33.845150,30.445251 
	C35.565647,27.988401 36.872566,25.666275 38.626854,23.754713 
	C40.155445,22.089081 41.875546,18.974270 44.503716,21.647993 
	C45.108643,22.263403 43.276958,25.723061 42.070984,27.545931 
	C40.807518,29.455694 38.947624,30.970873 37.348778,33.003899 
z"/>
</svg>